<svg xmlns="http://www.w3.org/2000/svg" xmlns:xlink="http://www.w3.org/1999/xlink" width="375" zoomAndPan="magnify" viewBox="0 0 281.25 281.249989" height="375" preserveAspectRatio="xMidYMid meet" version="1.0"><defs><clipPath id="745dac1672"><path d="M 249 130 L 280.503906 130 L 280.503906 162 L 249 162 Z M 249 130 " clip-rule="nonzero"/></clipPath><clipPath id="861d59325a"><path d="M 132 43.160156 L 168 43.160156 L 168 71 L 132 71 Z M 132 43.160156 " clip-rule="nonzero"/></clipPath><clipPath id="efb35fac13"><path d="M 191 210 L 226 210 L 226 237.644531 L 191 237.644531 Z M 191 210 " clip-rule="nonzero"/></clipPath><clipPath id="5c83799109"><path d="M 113 210 L 148 210 L 148 237.644531 L 113 237.644531 Z M 113 210 " clip-rule="nonzero"/></clipPath></defs><path stroke-linecap="round" transform="matrix(0.203178, 0, 0, 0.203496, 18.223333, 72.786946)" fill="none" stroke-linejoin="miter" d="M 104.007852 79.99882 L 39.582441 79.768472 L 7.590831 23.851442 L 40.005407 -31.816044 L 104.411593 -31.5665 L 136.422428 24.331334 Z M 104.007852 79.99882 " stroke="#000000" stroke-width="3.543" stroke-opacity="1" stroke-miterlimit="4"/><path stroke-linecap="round" transform="matrix(0.203178, 0, 0, 0.203496, 37.729263, 84.182733)" fill="none" stroke-linejoin="miter" d="M 103.997891 79.992649 L 39.591706 79.7623 L 7.58087 23.845271 L 39.995446 -31.80302 L 104.420857 -31.572671 L 136.412467 24.325163 Z M 103.997891 79.992649 " stroke="#000000" stroke-width="3.543" stroke-opacity="1" stroke-miterlimit="4"/><path stroke-linecap="round" transform="matrix(0.203178, 0, 0, 0.203496, 37.812563, 61.440604)" fill="none" stroke-linejoin="miter" d="M 103.991649 79.992362 L 39.585464 79.762014 L 7.574628 23.844984 L 40.00843 -31.803306 L 104.414615 -31.572958 L 136.425451 24.324876 Z M 103.991649 79.992362 " stroke="#000000" stroke-width="3.543" stroke-opacity="1" stroke-miterlimit="4"/><path stroke-linecap="round" transform="matrix(0.203178, 0, 0, 0.203496, 57.317676, 72.835785)" fill="none" stroke-linejoin="miter" d="M 104.004932 80.008363 L 39.579521 79.758819 L 7.587911 23.860985 L 40.002487 -31.806501 L 104.408673 -31.576153 L 136.419508 24.340877 Z M 104.004932 80.008363 " stroke="#000000" stroke-width="3.543" stroke-opacity="1" stroke-miterlimit="4"/><path stroke-linecap="round" transform="matrix(0.203178, 0, 0, 0.203496, 37.812563, 107.043511)" fill="none" stroke-linejoin="miter" d="M 103.991649 80.004948 L 39.585464 79.755404 L 7.574628 23.85757 L 40.00843 -31.809916 L 104.414615 -31.579568 L 136.425451 24.337462 Z M 103.991649 80.004948 " stroke="#000000" stroke-width="3.543" stroke-opacity="1" stroke-miterlimit="4"/><path stroke-linecap="round" transform="matrix(0.203178, 0, 0, 0.203496, 57.317676, 118.439298)" fill="none" stroke-linejoin="miter" d="M 104.004932 79.998776 L 39.579521 79.768428 L 7.587911 23.851398 L 40.002487 -31.816088 L 104.408673 -31.566544 L 136.419508 24.33129 Z M 104.004932 79.998776 " stroke="#000000" stroke-width="3.543" stroke-opacity="1" stroke-miterlimit="4"/><path stroke-linecap="round" transform="matrix(0.203178, 0, 0, 0.203496, 57.403011, 95.696549)" fill="none" stroke-linejoin="miter" d="M 104.007899 80.001536 L 39.582487 79.751993 L 7.590878 23.854159 L 40.005453 -31.813327 L 104.411639 -31.563783 L 136.422474 24.334051 Z M 104.007899 80.001536 " stroke="#000000" stroke-width="3.543" stroke-opacity="1" stroke-miterlimit="4"/><path stroke-linecap="round" transform="matrix(0.203178, 0, 0, 0.203496, 76.90813, 107.092336)" fill="none" stroke-linejoin="miter" d="M 104.001929 79.995365 L 39.576518 79.765017 L 7.584908 23.847987 L 39.999484 -31.819499 L 104.424895 -31.569955 L 136.416505 24.327879 Z M 104.001929 79.995365 " stroke="#000000" stroke-width="3.543" stroke-opacity="1" stroke-miterlimit="4"/><path stroke-linecap="round" transform="matrix(0.203178, 0, 0, 0.203496, 76.654153, 84.11558)" fill="none" stroke-linejoin="miter" d="M 104.002278 79.996318 L 39.576867 79.76597 L 7.585257 23.84894 L 39.999833 -31.818546 L 104.425244 -31.569002 L 136.416854 24.328832 Z M 104.002278 79.996318 " stroke="#000000" stroke-width="3.543" stroke-opacity="1" stroke-miterlimit="4"/><path stroke-linecap="round" transform="matrix(0.203178, 0, 0, 0.203496, 96.159267, 95.511374)" fill="none" stroke-linejoin="miter" d="M 103.996332 80.009307 L 39.590146 79.759763 L 7.579311 23.861929 L 39.993887 -31.805557 L 104.419298 -31.575209 L 136.410908 24.341821 Z M 103.996332 80.009307 " stroke="#000000" stroke-width="3.543" stroke-opacity="1" stroke-miterlimit="4"/><path stroke-linecap="round" transform="matrix(0.203178, 0, 0, 0.203496, 96.244607, 72.768632)" fill="none" stroke-linejoin="miter" d="M 103.999274 79.992836 L 39.593089 79.762488 L 7.582253 23.845458 L 39.996829 -31.802832 L 104.42224 -31.572484 L 136.41385 24.32535 Z M 103.999274 79.992836 " stroke="#000000" stroke-width="3.543" stroke-opacity="1" stroke-miterlimit="4"/><path stroke-linecap="round" transform="matrix(0.203178, 0, 0, 0.203496, 115.749721, 84.164419)" fill="none" stroke-linejoin="miter" d="M 103.993328 80.00586 L 39.587143 79.756316 L 7.576307 23.858482 L 39.990883 -31.809003 L 104.416294 -31.578655 L 136.407904 24.338375 Z M 103.993328 80.00586 " stroke="#000000" stroke-width="3.543" stroke-opacity="1" stroke-miterlimit="4"/><path stroke-linecap="round" transform="matrix(0.203178, 0, 0, 0.203496, 96.244607, 118.370109)" fill="none" stroke-linejoin="miter" d="M 103.999274 79.99326 L 39.593089 79.762911 L 7.582253 23.845882 L 39.996829 -31.802408 L 104.42224 -31.57206 L 136.41385 24.325774 Z M 103.999274 79.99326 " stroke="#000000" stroke-width="3.543" stroke-opacity="1" stroke-miterlimit="4"/><path stroke-linecap="round" transform="matrix(0.203178, 0, 0, 0.203496, 115.749721, 129.765896)" fill="none" stroke-linejoin="miter" d="M 103.993328 80.006284 L 39.587143 79.75674 L 7.576307 23.858906 L 39.990883 -31.80858 L 104.416294 -31.578232 L 136.407904 24.338798 Z M 103.993328 80.006284 " stroke="#000000" stroke-width="3.543" stroke-opacity="1" stroke-miterlimit="4"/><path stroke-linecap="round" transform="matrix(0.203178, 0, 0, 0.203496, 115.833031, 107.023161)" fill="none" stroke-linejoin="miter" d="M 104.006261 80.008974 L 39.58085 79.75943 L 7.58924 23.861596 L 40.003816 -31.80589 L 104.410002 -31.575542 L 136.420837 24.341488 Z M 104.006261 80.008974 " stroke="#000000" stroke-width="3.543" stroke-opacity="1" stroke-miterlimit="4"/><path stroke-linecap="round" transform="matrix(0.203178, 0, 0, 0.203496, 135.338146, 118.418948)" fill="none" stroke-linejoin="miter" d="M 104.000315 80.002802 L 39.574904 79.753258 L 7.583294 23.855424 L 39.99787 -31.812061 L 104.423281 -31.562518 L 136.414891 24.335316 Z M 104.000315 80.002802 " stroke="#000000" stroke-width="3.543" stroke-opacity="1" stroke-miterlimit="4"/><path stroke-linecap="round" transform="matrix(0.203178, 0, 0, 0.203496, 57.317676, 141.230873)" fill="none" stroke-linejoin="miter" d="M 104.004932 80.005629 L 39.579521 79.756085 L 7.587911 23.858251 L 40.002487 -31.809234 L 104.408673 -31.578886 L 136.419508 24.338143 Z M 104.004932 80.005629 " stroke="#000000" stroke-width="3.543" stroke-opacity="1" stroke-miterlimit="4"/><path stroke-linecap="round" transform="matrix(0.203178, 0, 0, 0.203496, 76.822791, 152.626674)" fill="none" stroke-linejoin="miter" d="M 103.998986 79.999387 L 39.592801 79.769039 L 7.581965 23.852009 L 39.996541 -31.815476 L 104.421952 -31.565932 L 136.413562 24.331902 Z M 103.998986 79.999387 " stroke="#000000" stroke-width="3.543" stroke-opacity="1" stroke-miterlimit="4"/><path stroke-linecap="round" transform="matrix(0.203178, 0, 0, 0.203496, 76.90813, 129.883925)" fill="none" stroke-linejoin="miter" d="M 104.001929 80.002148 L 39.576518 79.752604 L 7.584908 23.85477 L 39.999484 -31.812716 L 104.424895 -31.563172 L 136.416505 24.334662 Z M 104.001929 80.002148 " stroke="#000000" stroke-width="3.543" stroke-opacity="1" stroke-miterlimit="4"/><path stroke-linecap="round" transform="matrix(0.203178, 0, 0, 0.203496, 96.413245, 141.279712)" fill="none" stroke-linejoin="miter" d="M 103.995983 79.995976 L 39.589798 79.765628 L 7.578962 23.848598 L 39.993538 -31.818888 L 104.418949 -31.569344 L 136.410559 24.32849 Z M 103.995983 79.995976 " stroke="#000000" stroke-width="3.543" stroke-opacity="1" stroke-miterlimit="4"/><path stroke-linecap="round" transform="matrix(0.203178, 0, 0, 0.203496, 76.90813, 175.485408)" fill="none" stroke-linejoin="miter" d="M 104.001929 80.002536 L 39.576518 79.752992 L 7.584908 23.855158 L 39.999484 -31.812328 L 104.424895 -31.562784 L 136.416505 24.33505 Z M 104.001929 80.002536 " stroke="#000000" stroke-width="3.543" stroke-opacity="1" stroke-miterlimit="4"/><path stroke-linecap="round" transform="matrix(0.203178, 0, 0, 0.203496, 96.413245, 186.881195)" fill="none" stroke-linejoin="miter" d="M 103.995983 79.996365 L 39.589798 79.766016 L 7.578962 23.848987 L 39.993538 -31.818499 L 104.418949 -31.568955 L 136.410559 24.328879 Z M 103.995983 79.996365 " stroke="#000000" stroke-width="3.543" stroke-opacity="1" stroke-miterlimit="4"/><path stroke-linecap="round" transform="matrix(0.203178, 0, 0, 0.203496, 96.496554, 164.138446)" fill="none" stroke-linejoin="miter" d="M 104.008916 79.999125 L 39.583505 79.768777 L 7.591895 23.851747 L 40.006471 -31.815739 L 104.412656 -31.566195 L 136.423492 24.331639 Z M 104.008916 79.999125 " stroke="#000000" stroke-width="3.543" stroke-opacity="1" stroke-miterlimit="4"/><path stroke-linecap="round" transform="matrix(0.203178, 0, 0, 0.203496, 116.001654, 175.534233)" fill="none" stroke-linejoin="miter" d="M 104.003041 79.992954 L 39.577629 79.762605 L 7.586019 23.845576 L 40.000595 -31.802715 L 104.406781 -31.572366 L 136.417616 24.325468 Z M 104.003041 79.992954 " stroke="#000000" stroke-width="3.543" stroke-opacity="1" stroke-miterlimit="4"/><path stroke-linecap="round" transform="matrix(0.203178, 0, 0, 0.203496, 115.749721, 152.557484)" fill="none" stroke-linejoin="miter" d="M 103.993328 79.993871 L 39.587143 79.763523 L 7.576307 23.846493 L 39.990883 -31.820993 L 104.416294 -31.571449 L 136.407904 24.326385 Z M 103.993328 79.993871 " stroke="#000000" stroke-width="3.543" stroke-opacity="1" stroke-miterlimit="4"/><path stroke-linecap="round" transform="matrix(0.203178, 0, 0, 0.203496, 135.254843, 163.953271)" fill="none" stroke-linejoin="miter" d="M 104.006573 80.006895 L 39.581162 79.757351 L 7.589552 23.859517 L 40.004128 -31.807969 L 104.410313 -31.57762 L 136.421149 24.339409 Z M 104.006573 80.006895 " stroke="#000000" stroke-width="3.543" stroke-opacity="1" stroke-miterlimit="4"/><path stroke-linecap="round" transform="matrix(0.203178, 0, 0, 0.203496, 135.338146, 141.210522)" fill="none" stroke-linejoin="miter" d="M 104.000315 79.99046 L 39.574904 79.760111 L 7.583294 23.862277 L 39.99787 -31.805208 L 104.423281 -31.57486 L 136.414891 24.34217 Z M 104.000315 79.99046 " stroke="#000000" stroke-width="3.543" stroke-opacity="1" stroke-miterlimit="4"/><path stroke-linecap="round" transform="matrix(0.203178, 0, 0, 0.203496, 154.84326, 152.606324)" fill="none" stroke-linejoin="miter" d="M 103.994369 80.003413 L 39.588184 79.75387 L 7.577348 23.856036 L 39.991924 -31.81145 L 104.417335 -31.581102 L 136.408945 24.335928 Z M 103.994369 80.003413 " stroke="#000000" stroke-width="3.543" stroke-opacity="1" stroke-miterlimit="4"/><path stroke-linecap="round" transform="matrix(0.203178, 0, 0, 0.203496, 135.338146, 186.814035)" fill="none" stroke-linejoin="miter" d="M 104.000315 80.000069 L 39.574904 79.750525 L 7.583294 23.852691 L 39.99787 -31.814795 L 104.423281 -31.565251 L 136.414891 24.332583 Z M 104.000315 80.000069 " stroke="#000000" stroke-width="3.543" stroke-opacity="1" stroke-miterlimit="4"/><path stroke-linecap="round" transform="matrix(0.203178, 0, 0, 0.203496, 154.84326, 198.209822)" fill="none" stroke-linejoin="miter" d="M 103.994369 79.993898 L 39.588184 79.76355 L 7.577348 23.84652 L 39.991924 -31.820966 L 104.417335 -31.571422 L 136.408945 24.326412 Z M 103.994369 79.993898 " stroke="#000000" stroke-width="3.543" stroke-opacity="1" stroke-miterlimit="4"/><path stroke-linecap="round" transform="matrix(0.203178, 0, 0, 0.203496, 154.928578, 175.467088)" fill="none" stroke-linejoin="miter" d="M 103.997418 79.996587 L 39.591232 79.766239 L 7.580397 23.849209 L 39.994973 -31.818276 L 104.420384 -31.568732 L 136.411994 24.329102 Z M 103.997418 79.996587 " stroke="#000000" stroke-width="3.543" stroke-opacity="1" stroke-miterlimit="4"/><path stroke-linecap="round" transform="matrix(0.203178, 0, 0, 0.203496, 174.433707, 186.862875)" fill="none" stroke-linejoin="miter" d="M 103.991401 79.990416 L 39.585216 79.760068 L 7.593606 23.862234 L 40.008182 -31.805252 L 104.414367 -31.574904 L 136.425203 24.342126 Z M 103.991401 79.990416 " stroke="#000000" stroke-width="3.543" stroke-opacity="1" stroke-miterlimit="4"/><path stroke-linecap="round" transform="matrix(0.203178, 0, 0, 0.203496, 154.589288, 129.668217)" fill="none" stroke-linejoin="miter" d="M 103.994694 80.006394 L 39.588509 79.756851 L 7.577673 23.859016 L 39.992249 -31.808469 L 104.41766 -31.578121 L 136.40927 24.338909 Z M 103.994694 80.006394 " stroke="#000000" stroke-width="3.543" stroke-opacity="1" stroke-miterlimit="4"/><path stroke-linecap="round" transform="matrix(0.203178, 0, 0, 0.203496, 174.094402, 141.064004)" fill="none" stroke-linejoin="miter" d="M 104.007974 80.000223 L 39.582563 79.750679 L 7.590953 23.852845 L 40.005529 -31.814641 L 104.411714 -31.565097 L 136.42255 24.332737 Z M 104.007974 80.000223 " stroke="#000000" stroke-width="3.543" stroke-opacity="1" stroke-miterlimit="4"/><path stroke-linecap="round" transform="matrix(0.203178, 0, 0, 0.203496, 174.179737, 118.321269)" fill="none" stroke-linejoin="miter" d="M 103.991715 80.002913 L 39.585529 79.753369 L 7.574694 23.855535 L 40.008495 -31.811951 L 104.414681 -31.562407 L 136.425516 24.335427 Z M 103.991715 80.002913 " stroke="#000000" stroke-width="3.543" stroke-opacity="1" stroke-miterlimit="4"/><path stroke-linecap="round" transform="matrix(0.203178, 0, 0, 0.203496, 193.684863, 129.717056)" fill="none" stroke-linejoin="miter" d="M 104.004936 79.996741 L 39.579524 79.766393 L 7.587914 23.849363 L 40.00249 -31.818122 L 104.408676 -31.568579 L 136.419511 24.329256 Z M 104.004936 79.996741 " stroke="#000000" stroke-width="3.543" stroke-opacity="1" stroke-miterlimit="4"/><path stroke-linecap="round" transform="matrix(0.203178, 0, 0, 0.203496, 174.179737, 163.924782)" fill="none" stroke-linejoin="miter" d="M 103.991715 79.993327 L 39.585529 79.762978 L 7.574694 23.845949 L 40.008495 -31.821537 L 104.414681 -31.571993 L 136.425516 24.325841 Z M 103.991715 79.993327 " stroke="#000000" stroke-width="3.543" stroke-opacity="1" stroke-miterlimit="4"/><path stroke-linecap="round" transform="matrix(0.203178, 0, 0, 0.203496, 193.684863, 175.320584)" fill="none" stroke-linejoin="miter" d="M 104.004936 80.00628 L 39.579524 79.756736 L 7.587914 23.858902 L 40.00249 -31.808584 L 104.408676 -31.578235 L 136.419511 24.338794 Z M 104.004936 80.00628 " stroke="#000000" stroke-width="3.543" stroke-opacity="1" stroke-miterlimit="4"/><path stroke-linecap="round" transform="matrix(0.203178, 0, 0, 0.203496, 193.770184, 152.577835)" fill="none" stroke-linejoin="miter" d="M 104.007972 80.00904 L 39.582561 79.759497 L 7.590951 23.861663 L 40.005527 -31.805823 L 104.411713 -31.575475 L 136.422548 24.341555 Z M 104.007972 80.00904 " stroke="#000000" stroke-width="3.543" stroke-opacity="1" stroke-miterlimit="4"/><path stroke-linecap="round" transform="matrix(0.203178, 0, 0, 0.203496, 213.283434, 163.973622)" fill="none" stroke-linejoin="miter" d="M 104.000435 80.002869 L 39.575023 79.753325 L 7.583414 23.855491 L 39.997989 -31.811995 L 104.423401 -31.562451 L 136.41501 24.335383 Z M 104.000435 80.002869 " stroke="#000000" stroke-width="3.543" stroke-opacity="1" stroke-miterlimit="4"/><path stroke-linecap="round" transform="matrix(0.203178, 0, 0, 0.203496, 213.283434, 141.182033)" fill="none" stroke-linejoin="miter" d="M 104.000435 79.996087 L 39.575023 79.765738 L 7.583414 23.848709 L 39.997989 -31.818777 L 104.423401 -31.569233 L 136.41501 24.328601 Z M 104.000435 79.996087 " stroke="#000000" stroke-width="3.543" stroke-opacity="1" stroke-miterlimit="4"/><path stroke-linecap="round" transform="matrix(0.203178, 0, 0, 0.203496, 232.788548, 152.577835)" fill="none" stroke-linejoin="miter" d="M 103.994489 80.00904 L 39.588303 79.759497 L 7.577468 23.861663 L 39.992043 -31.805823 L 104.417455 -31.575475 L 136.409064 24.341555 Z M 103.994489 80.00904 " stroke="#000000" stroke-width="3.543" stroke-opacity="1" stroke-miterlimit="4"/><path stroke-linecap="round" transform="matrix(0.203178, 0, 0, 0.203496, 232.869835, 129.835086)" fill="none" stroke-linejoin="miter" d="M 103.998151 79.992605 L 39.591965 79.762257 L 7.581129 23.845227 L 39.995705 -31.803063 L 104.421117 -31.572715 L 136.412726 24.325119 Z M 103.998151 79.992605 " stroke="#000000" stroke-width="3.543" stroke-opacity="1" stroke-miterlimit="4"/><g clip-path="url(#745dac1672)"><path stroke-linecap="round" transform="matrix(0.203178, 0, 0, 0.203496, 252.374935, 141.230873)" fill="none" stroke-linejoin="miter" d="M 103.992275 80.005629 L 39.58609 79.756085 L 7.575254 23.858251 L 40.009056 -31.809234 L 104.415241 -31.578886 L 136.406851 24.338143 Z M 103.992275 80.005629 " stroke="#000000" stroke-width="3.543" stroke-opacity="1" stroke-miterlimit="4"/></g><path stroke-linecap="round" transform="matrix(0.203178, 0, 0, 0.203496, 135.254843, 95.598871)" fill="none" stroke-linejoin="miter" d="M 104.006573 80.001647 L 39.581162 79.752103 L 7.589552 23.854269 L 40.004128 -31.813217 L 104.410313 -31.563673 L 136.421149 24.334161 Z M 104.006573 80.001647 " stroke="#000000" stroke-width="3.543" stroke-opacity="1" stroke-miterlimit="4"/><path stroke-linecap="round" transform="matrix(0.203178, 0, 0, 0.203496, 154.759955, 106.994672)" fill="none" stroke-linejoin="miter" d="M 104.000639 79.995405 L 39.575227 79.765057 L 7.583618 23.848027 L 39.998193 -31.819459 L 104.423605 -31.569915 L 136.415214 24.327919 Z M 104.000639 79.995405 " stroke="#000000" stroke-width="3.543" stroke-opacity="1" stroke-miterlimit="4"/><path stroke-linecap="round" transform="matrix(0.203178, 0, 0, 0.203496, 154.84326, 84.251923)" fill="none" stroke-linejoin="miter" d="M 103.994369 79.998165 L 39.588184 79.767817 L 7.577348 23.850787 L 39.991924 -31.816699 L 104.417335 -31.567155 L 136.408945 24.330679 Z M 103.994369 79.998165 " stroke="#000000" stroke-width="3.543" stroke-opacity="1" stroke-miterlimit="4"/><path stroke-linecap="round" transform="matrix(0.203178, 0, 0, 0.203496, 174.348372, 95.647717)" fill="none" stroke-linejoin="miter" d="M 104.007661 79.991959 L 39.58225 79.76161 L 7.59064 23.844581 L 40.005215 -31.80371 L 104.411401 -31.573361 L 136.422237 24.324473 Z M 104.007661 79.991959 " stroke="#000000" stroke-width="3.543" stroke-opacity="1" stroke-miterlimit="4"/><path stroke-linecap="round" transform="matrix(0.203178, 0, 0, 0.203496, 194.298462, 84.542929)" fill="none" stroke-linejoin="miter" d="M 104.003372 80.007809 L 39.577961 79.758265 L 7.586351 23.860431 L 40.000927 -31.807055 L 104.407112 -31.576707 L 136.417948 24.340323 Z M 104.003372 80.007809 " stroke="#000000" stroke-width="3.543" stroke-opacity="1" stroke-miterlimit="4"/><path stroke-linecap="round" transform="matrix(0.203178, 0, 0, 0.203496, 115.664394, 61.342925)" fill="none" stroke-linejoin="miter" d="M 104.009553 79.992473 L 39.584141 79.762124 L 7.592532 23.845095 L 40.007107 -31.803195 L 104.413293 -31.572847 L 136.424128 24.324987 Z M 104.009553 79.992473 " stroke="#000000" stroke-width="3.543" stroke-opacity="1" stroke-miterlimit="4"/><path stroke-linecap="round" transform="matrix(0.203178, 0, 0, 0.203496, 135.169508, 72.738106)" fill="none" stroke-linejoin="miter" d="M 104.003607 80.008473 L 39.578195 79.758929 L 7.586586 23.861095 L 40.001161 -31.806391 L 104.407347 -31.576043 L 136.418182 24.340987 Z M 104.003607 80.008473 " stroke="#000000" stroke-width="3.543" stroke-opacity="1" stroke-miterlimit="4"/><g clip-path="url(#861d59325a)"><path stroke-linecap="round" transform="matrix(0.203178, 0, 0, 0.203496, 135.254843, 49.995975)" fill="none" stroke-linejoin="miter" d="M 104.006573 80.008198 L 39.581162 79.758654 L 7.589552 23.86082 L 40.004128 -31.806665 L 104.410313 -31.576317 L 136.421149 24.340713 Z M 104.006573 80.008198 " stroke="#000000" stroke-width="3.543" stroke-opacity="1" stroke-miterlimit="4"/></g><path stroke-linecap="round" transform="matrix(0.203178, 0, 0, 0.203496, 154.759955, 61.391764)" fill="none" stroke-linejoin="miter" d="M 104.000639 80.002015 L 39.575227 79.752471 L 7.583618 23.854637 L 39.998193 -31.812849 L 104.423605 -31.563305 L 136.415214 24.334529 Z M 104.000639 80.002015 " stroke="#000000" stroke-width="3.543" stroke-opacity="1" stroke-miterlimit="4"/><path stroke-linecap="round" transform="matrix(0.203178, 0, 0, 0.203496, 18.307856, 164.002111)" fill="none" stroke-linejoin="miter" d="M 103.995588 79.997242 L 39.589402 79.766894 L 7.578567 23.849864 L 39.993142 -31.817622 L 104.418554 -31.568078 L 136.410164 24.329756 Z M 103.995588 79.997242 " stroke="#000000" stroke-width="3.543" stroke-opacity="1" stroke-miterlimit="4"/><path stroke-linecap="round" transform="matrix(0.203178, 0, 0, 0.203496, 37.812563, 175.397898)" fill="none" stroke-linejoin="miter" d="M 103.991649 79.991071 L 39.585464 79.760723 L 7.574628 23.862889 L 40.00843 -31.804597 L 104.414615 -31.574249 L 136.425451 24.342781 Z M 103.991649 79.991071 " stroke="#000000" stroke-width="3.543" stroke-opacity="1" stroke-miterlimit="4"/><path stroke-linecap="round" transform="matrix(0.203178, 0, 0, 0.203496, 37.897897, 152.655163)" fill="none" stroke-linejoin="miter" d="M 103.99462 79.99376 L 39.588435 79.763412 L 7.577599 23.846382 L 39.992175 -31.821103 L 104.417586 -31.571559 L 136.409196 24.326275 Z M 103.99462 79.99376 " stroke="#000000" stroke-width="3.543" stroke-opacity="1" stroke-miterlimit="4"/><path stroke-linecap="round" transform="matrix(0.203178, 0, 0, 0.203496, 57.403011, 164.05095)" fill="none" stroke-linejoin="miter" d="M 104.007899 80.006785 L 39.582487 79.757241 L 7.590878 23.859407 L 40.005453 -31.808079 L 104.411639 -31.577731 L 136.422474 24.339299 Z M 104.007899 80.006785 " stroke="#000000" stroke-width="3.543" stroke-opacity="1" stroke-miterlimit="4"/><path stroke-linecap="round" transform="matrix(0.203178, 0, 0, 0.203496, -1.112942, 129.902246)" fill="none" stroke-linejoin="miter" d="M 104.009513 80.008096 L 39.584102 79.758552 L 7.592492 23.860718 L 40.007068 -31.806768 L 104.413253 -31.576419 L 136.424089 24.34061 Z M 104.009513 80.008096 " stroke="#000000" stroke-width="3.543" stroke-opacity="1" stroke-miterlimit="4"/><path stroke-linecap="round" transform="matrix(0.203178, 0, 0, 0.203496, 18.392173, 141.298033)" fill="none" stroke-linejoin="miter" d="M 104.003564 80.001925 L 39.578153 79.752381 L 7.586543 23.854547 L 40.001119 -31.812939 L 104.407305 -31.563395 L 136.41814 24.334439 Z M 104.003564 80.001925 " stroke="#000000" stroke-width="3.543" stroke-opacity="1" stroke-miterlimit="4"/><path stroke-linecap="round" transform="matrix(0.203178, 0, 0, 0.203496, 18.476694, 118.555284)" fill="none" stroke-linejoin="miter" d="M 103.991309 80.004685 L 39.585124 79.755141 L 7.593514 23.857307 L 40.00809 -31.810179 L 104.414275 -31.579831 L 136.425111 24.337199 Z M 103.991309 80.004685 " stroke="#000000" stroke-width="3.543" stroke-opacity="1" stroke-miterlimit="4"/><path stroke-linecap="round" transform="matrix(0.203178, 0, 0, 0.203496, 37.981203, 129.951071)" fill="none" stroke-linejoin="miter" d="M 104.007567 79.998514 L 39.582156 79.768165 L 7.590546 23.851136 L 40.005122 -31.81635 L 104.411307 -31.566806 L 136.422143 24.331028 Z M 104.007567 79.998514 " stroke="#000000" stroke-width="3.543" stroke-opacity="1" stroke-miterlimit="4"/><path stroke-linecap="round" transform="matrix(0.203178, 0, 0, 0.203496, 37.897897, 198.258662)" fill="none" stroke-linejoin="miter" d="M 103.99462 80.00344 L 39.588435 79.753897 L 7.577599 23.856063 L 39.992175 -31.811423 L 104.417586 -31.581075 L 136.409196 24.335955 Z M 103.99462 80.00344 " stroke="#000000" stroke-width="3.543" stroke-opacity="1" stroke-miterlimit="4"/><path stroke-linecap="round" transform="matrix(0.203178, 0, 0, 0.203496, 57.403011, 209.654463)" fill="none" stroke-linejoin="miter" d="M 104.007899 79.997199 L 39.582487 79.76685 L 7.590878 23.849821 L 40.005453 -31.817665 L 104.411639 -31.568121 L 136.422474 24.329713 Z M 104.007899 79.997199 " stroke="#000000" stroke-width="3.543" stroke-opacity="1" stroke-miterlimit="4"/><path stroke-linecap="round" transform="matrix(0.203178, 0, 0, 0.203496, 57.486321, 186.911728)" fill="none" stroke-linejoin="miter" d="M 104.001606 79.999888 L 39.576194 79.76954 L 7.584585 23.85251 L 39.99916 -31.814976 L 104.424572 -31.565432 L 136.416182 24.332402 Z M 104.001606 79.999888 " stroke="#000000" stroke-width="3.543" stroke-opacity="1" stroke-miterlimit="4"/><path stroke-linecap="round" transform="matrix(0.203178, 0, 0, 0.203496, 76.991435, 198.307516)" fill="none" stroke-linejoin="miter" d="M 103.99566 79.993717 L 39.589474 79.763369 L 7.578639 23.846339 L 39.993214 -31.821147 L 104.418626 -31.571603 L 136.410236 24.326231 Z M 103.99566 79.993717 " stroke="#000000" stroke-width="3.543" stroke-opacity="1" stroke-miterlimit="4"/><path stroke-linecap="round" transform="matrix(0.203178, 0, 0, 0.203496, 174.348372, 209.605624)" fill="none" stroke-linejoin="miter" d="M 104.007661 80.006852 L 39.58225 79.757308 L 7.59064 23.859474 L 40.005215 -31.808012 L 104.411401 -31.577664 L 136.422237 24.339366 Z M 104.007661 80.006852 " stroke="#000000" stroke-width="3.543" stroke-opacity="1" stroke-miterlimit="4"/><g clip-path="url(#efb35fac13)"><path stroke-linecap="round" transform="matrix(0.203178, 0, 0, 0.203496, 193.853486, 221.001411)" fill="none" stroke-linejoin="miter" d="M 104.001715 80.00068 L 39.576304 79.751136 L 7.584694 23.853302 L 39.99927 -31.814184 L 104.424681 -31.56464 L 136.416291 24.333194 Z M 104.001715 80.00068 " stroke="#000000" stroke-width="3.543" stroke-opacity="1" stroke-miterlimit="4"/></g><path stroke-linecap="round" transform="matrix(0.203178, 0, 0, 0.203496, 193.938807, 198.258662)" fill="none" stroke-linejoin="miter" d="M 104.004752 80.00344 L 39.57934 79.753897 L 7.587731 23.856063 L 40.002306 -31.811423 L 104.408492 -31.581075 L 136.419328 24.335955 Z M 104.004752 80.00344 " stroke="#000000" stroke-width="3.543" stroke-opacity="1" stroke-miterlimit="4"/><path stroke-linecap="round" transform="matrix(0.203178, 0, 0, 0.203496, 213.445965, 209.654463)" fill="none" stroke-linejoin="miter" d="M 104.007971 79.997199 L 39.582559 79.76685 L 7.590949 23.849821 L 40.005525 -31.817665 L 104.411711 -31.568121 L 136.422546 24.329713 Z M 104.007971 79.997199 " stroke="#000000" stroke-width="3.543" stroke-opacity="1" stroke-miterlimit="4"/><path stroke-linecap="round" transform="matrix(0.203178, 0, 0, 0.203496, 96.327903, 209.585273)" fill="none" stroke-linejoin="miter" d="M 103.993052 79.991682 L 39.586867 79.761334 L 7.576031 23.8635 L 39.990607 -31.803986 L 104.416018 -31.573638 L 136.407628 24.343392 Z M 103.993052 79.991682 " stroke="#000000" stroke-width="3.543" stroke-opacity="1" stroke-miterlimit="4"/><g clip-path="url(#5c83799109)"><path stroke-linecap="round" transform="matrix(0.203178, 0, 0, 0.203496, 115.833031, 220.98106)" fill="none" stroke-linejoin="miter" d="M 104.006261 80.004706 L 39.58085 79.755162 L 7.58924 23.857328 L 40.003816 -31.810157 L 104.410002 -31.579809 L 136.420837 24.33722 Z M 104.006261 80.004706 " stroke="#000000" stroke-width="3.543" stroke-opacity="1" stroke-miterlimit="4"/></g><path stroke-linecap="round" transform="matrix(0.203178, 0, 0, 0.203496, 115.918359, 198.238311)" fill="none" stroke-linejoin="miter" d="M 104.009263 80.007467 L 39.583852 79.757923 L 7.592242 23.860089 L 40.006818 -31.807397 L 104.413003 -31.577049 L 136.423839 24.339981 Z M 104.009263 80.007467 " stroke="#000000" stroke-width="3.543" stroke-opacity="1" stroke-miterlimit="4"/><path stroke-linecap="round" transform="matrix(0.203178, 0, 0, 0.203496, 135.423466, 209.634113)" fill="none" stroke-linejoin="miter" d="M 104.003352 80.001225 L 39.577941 79.751681 L 7.586331 23.853847 L 40.000907 -31.813639 L 104.407092 -31.564095 L 136.417928 24.333739 Z M 104.003352 80.001225 " stroke="#000000" stroke-width="3.543" stroke-opacity="1" stroke-miterlimit="4"/></svg>