<svg xmlns="http://www.w3.org/2000/svg" xmlns:xlink="http://www.w3.org/1999/xlink" width="720" zoomAndPan="magnify" viewBox="0 0 540 346.49999" height="462" preserveAspectRatio="xMidYMid meet" version="1.0"><defs><clipPath id="b0c696283b"><path d="M 437 158 L 484.441406 158 L 484.441406 206 L 437 206 Z M 437 158 " clip-rule="nonzero"/></clipPath><clipPath id="f1a42ff321"><path d="M 258 24.382812 L 311 24.382812 L 311 66 L 258 66 Z M 258 24.382812 " clip-rule="nonzero"/></clipPath><clipPath id="baafa2266d"><path d="M 55.308594 140 L 103 140 L 103 189 L 55.308594 189 Z M 55.308594 140 " clip-rule="nonzero"/></clipPath><clipPath id="8d4f4742a8"><path d="M 348 280 L 401 280 L 401 321.703125 L 348 321.703125 Z M 348 280 " clip-rule="nonzero"/></clipPath><clipPath id="d862d804bb"><path d="M 228 280 L 282 280 L 282 321.703125 L 228 321.703125 Z M 228 280 " clip-rule="nonzero"/></clipPath></defs><path stroke-linecap="round" transform="matrix(0.310827, 0, 0, 0.311103, 83.19507, 69.671417)" fill="none" stroke-linejoin="miter" d="M 103.99508 79.996633 L 39.587734 79.758066 L 7.578854 23.858137 L 40.002455 -31.815782 L 104.409801 -31.577215 L 136.418681 24.33527 Z M 103.99508 79.996633 " stroke="#000000" stroke-width="3.543" stroke-opacity="1" stroke-miterlimit="4"/><path stroke-linecap="round" transform="matrix(0.310827, 0, 0, 0.311103, 113.035685, 87.093181)" fill="none" stroke-linejoin="miter" d="M 104.005167 79.996987 L 39.585254 79.758421 L 7.588942 23.858491 L 39.999975 -31.815428 L 104.419888 -31.576861 L 136.416201 24.335625 Z M 104.005167 79.996987 " stroke="#000000" stroke-width="3.543" stroke-opacity="1" stroke-miterlimit="4"/><path stroke-linecap="round" transform="matrix(0.310827, 0, 0, 0.311103, 113.163133, 52.325263)" fill="none" stroke-linejoin="miter" d="M 103.997291 80.00436 L 39.589945 79.765793 L 7.581066 23.853308 L 40.004666 -31.808055 L 104.412012 -31.569489 L 136.420892 24.330441 Z M 103.997291 80.00436 " stroke="#000000" stroke-width="3.543" stroke-opacity="1" stroke-miterlimit="4"/><path stroke-linecap="round" transform="matrix(0.310827, 0, 0, 0.311103, 143.002503, 69.74609)" fill="none" stroke-linejoin="miter" d="M 103.998813 79.99517 L 39.5789 79.756603 L 7.582587 23.856674 L 40.006188 -31.817245 L 104.413533 -31.566122 L 136.409846 24.333807 Z M 103.998813 79.99517 " stroke="#000000" stroke-width="3.543" stroke-opacity="1" stroke-miterlimit="4"/><path stroke-linecap="round" transform="matrix(0.310827, 0, 0, 0.311103, 113.163133, 122.042477)" fill="none" stroke-linejoin="miter" d="M 103.997291 79.996739 L 39.589945 79.758173 L 7.581066 23.858243 L 40.004666 -31.815676 L 104.412012 -31.577109 L 136.420892 24.335376 Z M 103.997291 79.996739 " stroke="#000000" stroke-width="3.543" stroke-opacity="1" stroke-miterlimit="4"/><path stroke-linecap="round" transform="matrix(0.310827, 0, 0, 0.311103, 143.002503, 139.464225)" fill="none" stroke-linejoin="miter" d="M 103.998813 79.997148 L 39.5789 79.758581 L 7.582587 23.858652 L 40.006188 -31.815267 L 104.413533 -31.576701 L 136.409846 24.335785 Z M 103.998813 79.997148 " stroke="#000000" stroke-width="3.543" stroke-opacity="1" stroke-miterlimit="4"/><path stroke-linecap="round" transform="matrix(0.310827, 0, 0, 0.311103, 143.133053, 104.695372)" fill="none" stroke-linejoin="miter" d="M 104.006094 79.994968 L 39.586181 79.756401 L 7.589869 23.856472 L 40.000902 -31.817447 L 104.420815 -31.566324 L 136.417128 24.333605 Z M 104.006094 79.994968 " stroke="#000000" stroke-width="3.543" stroke-opacity="1" stroke-miterlimit="4"/><path stroke-linecap="round" transform="matrix(0.310827, 0, 0, 0.311103, 172.972423, 122.117134)" fill="none" stroke-linejoin="miter" d="M 103.995049 79.99533 L 39.587703 79.756764 L 7.578823 23.856834 L 40.002423 -31.817085 L 104.409769 -31.565962 L 136.418649 24.333967 Z M 103.995049 79.99533 " stroke="#000000" stroke-width="3.543" stroke-opacity="1" stroke-miterlimit="4"/><path stroke-linecap="round" transform="matrix(0.310827, 0, 0, 0.311103, 172.583891, 86.990511)" fill="none" stroke-linejoin="miter" d="M 104.000883 80.000548 L 39.58097 79.761982 L 7.584657 23.849496 L 39.99569 -31.811867 L 104.415603 -31.5733 L 136.411916 24.339185 Z M 104.000883 80.000548 " stroke="#000000" stroke-width="3.543" stroke-opacity="1" stroke-miterlimit="4"/><path stroke-linecap="round" transform="matrix(0.310827, 0, 0, 0.311103, 202.423265, 104.412276)" fill="none" stroke-linejoin="miter" d="M 104.002397 80.000903 L 39.582484 79.762336 L 7.586171 23.84985 L 39.997204 -31.811512 L 104.417117 -31.572946 L 136.41343 24.33954 Z M 104.002397 80.000903 " stroke="#000000" stroke-width="3.543" stroke-opacity="1" stroke-miterlimit="4"/><path stroke-linecap="round" transform="matrix(0.310827, 0, 0, 0.311103, 202.553814, 69.64342)" fill="none" stroke-linejoin="miter" d="M 103.997111 79.998731 L 39.589765 79.760164 L 7.580885 23.860235 L 40.004486 -31.813684 L 104.411831 -31.575118 L 136.420711 24.337368 Z M 103.997111 79.998731 " stroke="#000000" stroke-width="3.543" stroke-opacity="1" stroke-miterlimit="4"/><path stroke-linecap="round" transform="matrix(0.310827, 0, 0, 0.311103, 232.393199, 87.065183)" fill="none" stroke-linejoin="miter" d="M 103.998586 79.999093 L 39.578673 79.760526 L 7.58236 23.848041 L 40.005961 -31.813322 L 104.413307 -31.574755 L 136.422187 24.33773 Z M 103.998586 79.999093 " stroke="#000000" stroke-width="3.543" stroke-opacity="1" stroke-miterlimit="4"/><path stroke-linecap="round" transform="matrix(0.310827, 0, 0, 0.311103, 202.553814, 139.358442)" fill="none" stroke-linejoin="miter" d="M 103.997111 79.998159 L 39.589765 79.759592 L 7.580885 23.859663 L 40.004486 -31.814256 L 104.411831 -31.57569 L 136.420711 24.336796 Z M 103.997111 79.998159 " stroke="#000000" stroke-width="3.543" stroke-opacity="1" stroke-miterlimit="4"/><path stroke-linecap="round" transform="matrix(0.310827, 0, 0, 0.311103, 232.393199, 156.780204)" fill="none" stroke-linejoin="miter" d="M 103.998586 79.998521 L 39.578673 79.759954 L 7.58236 23.860025 L 40.005961 -31.813894 L 104.413307 -31.575327 L 136.422187 24.337158 Z M 103.998586 79.998521 " stroke="#000000" stroke-width="3.543" stroke-opacity="1" stroke-miterlimit="4"/><path stroke-linecap="round" transform="matrix(0.310827, 0, 0, 0.311103, 232.520633, 122.011351)" fill="none" stroke-linejoin="miter" d="M 104.003324 79.996341 L 39.583411 79.757775 L 7.587098 23.857845 L 39.998131 -31.816074 L 104.418044 -31.577507 L 136.414357 24.334979 Z M 104.003324 79.996341 " stroke="#000000" stroke-width="3.543" stroke-opacity="1" stroke-miterlimit="4"/><path stroke-linecap="round" transform="matrix(0.310827, 0, 0, 0.311103, 262.360018, 139.433113)" fill="none" stroke-linejoin="miter" d="M 104.004799 79.996704 L 39.584886 79.758137 L 7.588573 23.858208 L 39.999606 -31.815711 L 104.41952 -31.577145 L 136.415832 24.335341 Z M 104.004799 79.996704 " stroke="#000000" stroke-width="3.543" stroke-opacity="1" stroke-miterlimit="4"/><path stroke-linecap="round" transform="matrix(0.310827, 0, 0, 0.311103, 143.002503, 174.307738)" fill="none" stroke-linejoin="miter" d="M 103.998813 79.997911 L 39.5789 79.759344 L 7.582587 23.859414 L 40.006188 -31.814504 L 104.413533 -31.575938 L 136.409846 24.336548 Z M 103.998813 79.997911 " stroke="#000000" stroke-width="3.543" stroke-opacity="1" stroke-miterlimit="4"/><path stroke-linecap="round" transform="matrix(0.310827, 0, 0, 0.311103, 172.841874, 191.729488)" fill="none" stroke-linejoin="miter" d="M 104.000335 79.998311 L 39.580421 79.759745 L 7.584109 23.859815 L 39.995142 -31.814104 L 104.415055 -31.575537 L 136.411368 24.336948 Z M 104.000335 79.998311 " stroke="#000000" stroke-width="3.543" stroke-opacity="1" stroke-miterlimit="4"/><path stroke-linecap="round" transform="matrix(0.310827, 0, 0, 0.311103, 172.972423, 156.960647)" fill="none" stroke-linejoin="miter" d="M 103.995049 79.996093 L 39.587703 79.757527 L 7.578823 23.857597 L 40.002423 -31.816322 L 104.409769 -31.577755 L 136.418649 24.33473 Z M 103.995049 79.996093 " stroke="#000000" stroke-width="3.543" stroke-opacity="1" stroke-miterlimit="4"/><path stroke-linecap="round" transform="matrix(0.310827, 0, 0, 0.311103, 202.811809, 174.382397)" fill="none" stroke-linejoin="miter" d="M 103.996524 79.996494 L 39.589178 79.757927 L 7.580298 23.857998 L 40.003899 -31.815921 L 104.411245 -31.577354 L 136.420125 24.335131 Z M 103.996524 79.996494 " stroke="#000000" stroke-width="3.543" stroke-opacity="1" stroke-miterlimit="4"/><path stroke-linecap="round" transform="matrix(0.310827, 0, 0, 0.311103, 172.972423, 226.675669)" fill="none" stroke-linejoin="miter" d="M 103.995049 79.995521 L 39.587703 79.756955 L 7.578823 23.857025 L 40.002423 -31.816894 L 104.409769 -31.565771 L 136.418649 24.334158 Z M 103.995049 79.995521 " stroke="#000000" stroke-width="3.543" stroke-opacity="1" stroke-miterlimit="4"/><path stroke-linecap="round" transform="matrix(0.310827, 0, 0, 0.311103, 202.811809, 244.097431)" fill="none" stroke-linejoin="miter" d="M 103.996524 79.995883 L 39.589178 79.757317 L 7.580298 23.857387 L 40.003899 -31.816532 L 104.411245 -31.577965 L 136.420125 24.334521 Z M 103.996524 79.995883 " stroke="#000000" stroke-width="3.543" stroke-opacity="1" stroke-miterlimit="4"/><path stroke-linecap="round" transform="matrix(0.310827, 0, 0, 0.311103, 202.939242, 209.328578)" fill="none" stroke-linejoin="miter" d="M 104.001262 80.00626 L 39.581349 79.755137 L 7.585036 23.855208 L 39.996069 -31.806155 L 104.415982 -31.567588 L 136.412295 24.332341 Z M 104.001262 80.00626 " stroke="#000000" stroke-width="3.543" stroke-opacity="1" stroke-miterlimit="4"/><path stroke-linecap="round" transform="matrix(0.310827, 0, 0, 0.311103, 232.778613, 226.75034)" fill="none" stroke-linejoin="miter" d="M 104.002783 79.994066 L 39.58287 79.755499 L 7.586557 23.85557 L 39.997591 -31.805793 L 104.417504 -31.567226 L 136.413816 24.332703 Z M 104.002783 79.994066 " stroke="#000000" stroke-width="3.543" stroke-opacity="1" stroke-miterlimit="4"/><path stroke-linecap="round" transform="matrix(0.310827, 0, 0, 0.311103, 232.393199, 191.623717)" fill="none" stroke-linejoin="miter" d="M 103.998586 79.999284 L 39.578673 79.760717 L 7.58236 23.848232 L 40.005961 -31.813131 L 104.413307 -31.574564 L 136.422187 24.337921 Z M 103.998586 79.999284 " stroke="#000000" stroke-width="3.543" stroke-opacity="1" stroke-miterlimit="4"/><path stroke-linecap="round" transform="matrix(0.310827, 0, 0, 0.311103, 262.232584, 209.045482)" fill="none" stroke-linejoin="miter" d="M 104.000062 79.999638 L 39.580148 79.761072 L 7.583836 23.848586 L 39.994869 -31.812777 L 104.414782 -31.57421 L 136.411095 24.338276 Z M 104.000062 79.999638 " stroke="#000000" stroke-width="3.543" stroke-opacity="1" stroke-miterlimit="4"/><path stroke-linecap="round" transform="matrix(0.310827, 0, 0, 0.311103, 262.360018, 174.276626)" fill="none" stroke-linejoin="miter" d="M 104.004799 79.997467 L 39.584886 79.7589 L 7.588573 23.858971 L 39.999606 -31.814948 L 104.41952 -31.576382 L 136.415832 24.336104 Z M 104.004799 79.997467 " stroke="#000000" stroke-width="3.543" stroke-opacity="1" stroke-miterlimit="4"/><path stroke-linecap="round" transform="matrix(0.310827, 0, 0, 0.311103, 292.199389, 191.698391)" fill="none" stroke-linejoin="miter" d="M 103.993753 79.997821 L 39.586408 79.759254 L 7.590095 23.859325 L 40.001128 -31.814594 L 104.421041 -31.576027 L 136.417354 24.336458 Z M 103.993753 79.997821 " stroke="#000000" stroke-width="3.543" stroke-opacity="1" stroke-miterlimit="4"/><path stroke-linecap="round" transform="matrix(0.310827, 0, 0, 0.311103, 262.360018, 243.994749)" fill="none" stroke-linejoin="miter" d="M 104.004799 79.999483 L 39.584886 79.760916 L 7.588573 23.84843 L 39.999606 -31.812932 L 104.41952 -31.574366 L 136.415832 24.33812 Z M 104.004799 79.999483 " stroke="#000000" stroke-width="3.543" stroke-opacity="1" stroke-miterlimit="4"/><path stroke-linecap="round" transform="matrix(0.310827, 0, 0, 0.311103, 292.199389, 261.416497)" fill="none" stroke-linejoin="miter" d="M 103.993753 79.999891 L 39.586408 79.761324 L 7.590095 23.848839 L 40.001128 -31.812524 L 104.421041 -31.573957 L 136.417354 24.338528 Z M 103.993753 79.999891 " stroke="#000000" stroke-width="3.543" stroke-opacity="1" stroke-miterlimit="4"/><path stroke-linecap="round" transform="matrix(0.310827, 0, 0, 0.311103, 292.329952, 226.647658)" fill="none" stroke-linejoin="miter" d="M 104.000989 79.997665 L 39.581076 79.759099 L 7.584763 23.859169 L 39.995796 -31.81475 L 104.415709 -31.576183 L 136.412022 24.336302 Z M 104.000989 79.997665 " stroke="#000000" stroke-width="3.543" stroke-opacity="1" stroke-miterlimit="4"/><path stroke-linecap="round" transform="matrix(0.310827, 0, 0, 0.311103, 322.169294, 244.06942)" fill="none" stroke-linejoin="miter" d="M 104.002603 79.998027 L 39.58269 79.759461 L 7.586377 23.859531 L 39.99741 -31.814388 L 104.417323 -31.575821 L 136.413636 24.336665 Z M 104.002603 79.998027 " stroke="#000000" stroke-width="3.543" stroke-opacity="1" stroke-miterlimit="4"/><path stroke-linecap="round" transform="matrix(0.310827, 0, 0, 0.311103, 291.810859, 156.630873)" fill="none" stroke-linejoin="miter" d="M 103.99958 80.001393 L 39.579667 79.762826 L 7.583354 23.850341 L 39.994387 -31.811022 L 104.4143 -31.572456 L 136.410613 24.34003 Z M 103.99958 80.001393 " stroke="#000000" stroke-width="3.543" stroke-opacity="1" stroke-miterlimit="4"/><path stroke-linecap="round" transform="matrix(0.310827, 0, 0, 0.311103, 321.65023, 174.052638)" fill="none" stroke-linejoin="miter" d="M 104.001101 80.001747 L 39.581188 79.763181 L 7.584876 23.850695 L 39.995909 -31.810668 L 104.415822 -31.572101 L 136.412135 24.327828 Z M 104.001101 80.001747 " stroke="#000000" stroke-width="3.543" stroke-opacity="1" stroke-miterlimit="4"/><path stroke-linecap="round" transform="matrix(0.310827, 0, 0, 0.311103, 321.780765, 139.283782)" fill="none" stroke-linejoin="miter" d="M 103.995862 79.999575 L 39.588516 79.761009 L 7.579636 23.848523 L 40.003236 -31.81284 L 104.410582 -31.574273 L 136.419462 24.338213 Z M 103.995862 79.999575 " stroke="#000000" stroke-width="3.543" stroke-opacity="1" stroke-miterlimit="4"/><path stroke-linecap="round" transform="matrix(0.310827, 0, 0, 0.311103, 351.620164, 156.705547)" fill="none" stroke-linejoin="miter" d="M 103.997291 79.99993 L 39.589945 79.761363 L 7.581065 23.848878 L 40.004666 -31.812485 L 104.412011 -31.573918 L 136.420891 24.338567 Z M 103.997291 79.99993 " stroke="#000000" stroke-width="3.543" stroke-opacity="1" stroke-miterlimit="4"/><path stroke-linecap="round" transform="matrix(0.310827, 0, 0, 0.311103, 321.780765, 209.001934)" fill="none" stroke-linejoin="miter" d="M 103.995862 80.001499 L 39.588516 79.762932 L 7.579636 23.850447 L 40.003236 -31.810916 L 104.410582 -31.572349 L 136.419462 24.340136 Z M 103.995862 80.001499 " stroke="#000000" stroke-width="3.543" stroke-opacity="1" stroke-miterlimit="4"/><path stroke-linecap="round" transform="matrix(0.310827, 0, 0, 0.311103, 351.620164, 226.42367)" fill="none" stroke-linejoin="miter" d="M 103.997291 80.001946 L 39.589945 79.763379 L 7.581065 23.850894 L 40.004666 -31.810469 L 104.412011 -31.571902 L 136.420891 24.328027 Z M 103.997291 80.001946 " stroke="#000000" stroke-width="3.543" stroke-opacity="1" stroke-miterlimit="4"/><path stroke-linecap="round" transform="matrix(0.310827, 0, 0, 0.311103, 351.750699, 191.654829)" fill="none" stroke-linejoin="miter" d="M 104.004619 79.999728 L 39.584706 79.761161 L 7.588393 23.848676 L 39.999426 -31.812687 L 104.419339 -31.574121 L 136.415652 24.338365 Z M 104.004619 79.999728 " stroke="#000000" stroke-width="3.543" stroke-opacity="1" stroke-miterlimit="4"/><path stroke-linecap="round" transform="matrix(0.310827, 0, 0, 0.311103, 381.602532, 209.076579)" fill="none" stroke-linejoin="miter" d="M 104.003749 80.000129 L 39.583836 79.761562 L 7.587523 23.849076 L 39.998556 -31.812286 L 104.41847 -31.57372 L 136.414782 24.338766 Z M 104.003749 80.000129 " stroke="#000000" stroke-width="3.543" stroke-opacity="1" stroke-miterlimit="4"/><path stroke-linecap="round" transform="matrix(0.310827, 0, 0, 0.311103, 381.602532, 174.233081)" fill="none" stroke-linejoin="miter" d="M 104.003749 79.999319 L 39.583836 79.760753 L 7.587523 23.848267 L 39.998556 -31.813096 L 104.41847 -31.574529 L 136.414782 24.337957 Z M 104.003749 79.999319 " stroke="#000000" stroke-width="3.543" stroke-opacity="1" stroke-miterlimit="4"/><path stroke-linecap="round" transform="matrix(0.310827, 0, 0, 0.311103, 411.44191, 191.654829)" fill="none" stroke-linejoin="miter" d="M 104.005248 79.999728 L 39.585334 79.761161 L 7.589022 23.848676 L 40.000055 -31.812687 L 104.419968 -31.574121 L 136.416281 24.338365 Z M 104.005248 79.999728 " stroke="#000000" stroke-width="3.543" stroke-opacity="1" stroke-miterlimit="4"/><path stroke-linecap="round" transform="matrix(0.310827, 0, 0, 0.311103, 411.566242, 156.88599)" fill="none" stroke-linejoin="miter" d="M 103.994828 79.997502 L 39.587482 79.758935 L 7.578602 23.859006 L 40.002202 -31.814913 L 104.422115 -31.576346 L 136.418428 24.336139 Z M 103.994828 79.997502 " stroke="#000000" stroke-width="3.543" stroke-opacity="1" stroke-miterlimit="4"/><g clip-path="url(#b0c696283b)"><path stroke-linecap="round" transform="matrix(0.310827, 0, 0, 0.311103, 441.405606, 174.307738)" fill="none" stroke-linejoin="miter" d="M 103.996372 79.997911 L 39.589026 79.759344 L 7.580146 23.859414 L 40.003747 -31.814504 L 104.411093 -31.575938 L 136.419973 24.336548 Z M 103.996372 79.997911 " stroke="#000000" stroke-width="3.543" stroke-opacity="1" stroke-miterlimit="4"/></g><path stroke-linecap="round" transform="matrix(0.310827, 0, 0, 0.311103, 262.232584, 104.546041)" fill="none" stroke-linejoin="miter" d="M 104.000062 79.99784 L 39.580148 79.759273 L 7.583836 23.859344 L 39.994869 -31.814575 L 104.414782 -31.576009 L 136.411095 24.336477 Z M 104.000062 79.99784 " stroke="#000000" stroke-width="3.543" stroke-opacity="1" stroke-miterlimit="4"/><path stroke-linecap="round" transform="matrix(0.310827, 0, 0, 0.311103, 292.071955, 121.967792)" fill="none" stroke-linejoin="miter" d="M 104.001583 79.998241 L 39.58167 79.759674 L 7.585357 23.859744 L 39.996391 -31.814174 L 104.416304 -31.575608 L 136.412616 24.336878 Z M 104.001583 79.998241 " stroke="#000000" stroke-width="3.543" stroke-opacity="1" stroke-miterlimit="4"/><path stroke-linecap="round" transform="matrix(0.310827, 0, 0, 0.311103, 292.199389, 87.19895)" fill="none" stroke-linejoin="miter" d="M 103.993753 79.996022 L 39.586408 79.757456 L 7.590095 23.857526 L 40.001128 -31.816393 L 104.421041 -31.577826 L 136.417354 24.33466 Z M 103.993753 79.996022 " stroke="#000000" stroke-width="3.543" stroke-opacity="1" stroke-miterlimit="4"/><path stroke-linecap="round" transform="matrix(0.310827, 0, 0, 0.311103, 322.038791, 104.620715)" fill="none" stroke-linejoin="miter" d="M 103.995175 79.996377 L 39.587829 79.75781 L 7.578949 23.857881 L 40.002549 -31.816038 L 104.409895 -31.577471 L 136.418775 24.335014 Z M 103.995175 79.996377 " stroke="#000000" stroke-width="3.543" stroke-opacity="1" stroke-miterlimit="4"/><path stroke-linecap="round" transform="matrix(0.310827, 0, 0, 0.311103, 352.558858, 87.643825)" fill="none" stroke-linejoin="miter" d="M 104.006016 79.997429 L 39.586103 79.758863 L 7.58979 23.858933 L 40.000824 -31.814986 L 104.420737 -31.576419 L 136.417049 24.336067 Z M 104.006016 79.997429 " stroke="#000000" stroke-width="3.543" stroke-opacity="1" stroke-miterlimit="4"/><path stroke-linecap="round" transform="matrix(0.310827, 0, 0, 0.311103, 232.26265, 52.175932)" fill="none" stroke-linejoin="miter" d="M 104.003872 79.994675 L 39.583959 79.756109 L 7.587646 23.856179 L 39.998679 -31.81774 L 104.418593 -31.566617 L 136.414905 24.333313 Z M 104.003872 79.994675 " stroke="#000000" stroke-width="3.543" stroke-opacity="1" stroke-miterlimit="4"/><path stroke-linecap="round" transform="matrix(0.310827, 0, 0, 0.311103, 262.102021, 69.59676)" fill="none" stroke-linejoin="miter" d="M 104.005394 79.998042 L 39.585481 79.759475 L 7.589168 23.859546 L 40.000201 -31.814373 L 104.420114 -31.575806 L 136.416427 24.336679 Z M 104.005394 79.998042 " stroke="#000000" stroke-width="3.543" stroke-opacity="1" stroke-miterlimit="4"/><g clip-path="url(#f1a42ff321)"><path stroke-linecap="round" transform="matrix(0.310827, 0, 0, 0.311103, 262.232584, 34.828841)" fill="none" stroke-linejoin="miter" d="M 104.000062 80.005414 L 39.580148 79.754291 L 7.583836 23.854362 L 39.994869 -31.807001 L 104.414782 -31.568434 L 136.411095 24.331495 Z M 104.000062 80.005414 " stroke="#000000" stroke-width="3.543" stroke-opacity="1" stroke-miterlimit="4"/></g><path stroke-linecap="round" transform="matrix(0.310827, 0, 0, 0.311103, 292.071955, 52.250596)" fill="none" stroke-linejoin="miter" d="M 104.001583 80.005799 L 39.58167 79.754677 L 7.585357 23.854747 L 39.996391 -31.806616 L 104.416304 -31.568049 L 136.412616 24.331881 Z M 104.001583 80.005799 " stroke="#000000" stroke-width="3.543" stroke-opacity="1" stroke-miterlimit="4"/><path stroke-linecap="round" transform="matrix(0.310827, 0, 0, 0.311103, 83.324375, 209.120153)" fill="none" stroke-linejoin="miter" d="M 103.993796 79.998183 L 39.58645 79.759617 L 7.590137 23.859687 L 40.001171 -31.814232 L 104.421084 -31.575665 L 136.417396 24.336821 Z M 103.993796 79.998183 " stroke="#000000" stroke-width="3.543" stroke-opacity="1" stroke-miterlimit="4"/><path stroke-linecap="round" transform="matrix(0.310827, 0, 0, 0.311103, 113.163133, 226.541901)" fill="none" stroke-linejoin="miter" d="M 103.997291 79.998592 L 39.589945 79.760025 L 7.581066 23.860096 L 40.004666 -31.813823 L 104.412012 -31.575257 L 136.420892 24.337229 Z M 103.997291 79.998592 " stroke="#000000" stroke-width="3.543" stroke-opacity="1" stroke-miterlimit="4"/><path stroke-linecap="round" transform="matrix(0.310827, 0, 0, 0.311103, 113.293682, 191.773048)" fill="none" stroke-linejoin="miter" d="M 104.004573 79.996412 L 39.58466 79.757846 L 7.588347 23.857916 L 39.99938 -31.816003 L 104.419293 -31.577436 L 136.415606 24.335049 Z M 104.004573 79.996412 " stroke="#000000" stroke-width="3.543" stroke-opacity="1" stroke-miterlimit="4"/><path stroke-linecap="round" transform="matrix(0.310827, 0, 0, 0.311103, 143.133053, 209.194796)" fill="none" stroke-linejoin="miter" d="M 104.006094 79.996821 L 39.586181 79.758254 L 7.589869 23.858325 L 40.000902 -31.815594 L 104.420815 -31.577028 L 136.417128 24.335458 Z M 104.006094 79.996821 " stroke="#000000" stroke-width="3.543" stroke-opacity="1" stroke-miterlimit="4"/><g clip-path="url(#baafa2266d)"><path stroke-linecap="round" transform="matrix(0.310827, 0, 0, 0.311103, 53.613989, 156.988643)" fill="none" stroke-linejoin="miter" d="M 104.004591 79.993995 L 39.584677 79.755429 L 7.588365 23.855499 L 39.999398 -31.805864 L 104.419311 -31.567297 L 136.415624 24.332633 Z M 104.004591 79.993995 " stroke="#000000" stroke-width="3.543" stroke-opacity="1" stroke-miterlimit="4"/></g><path stroke-linecap="round" transform="matrix(0.310827, 0, 0, 0.311103, 83.453367, 174.410394)" fill="none" stroke-linejoin="miter" d="M 104.006089 79.994396 L 39.586176 79.755829 L 7.589863 23.8559 L 40.000896 -31.818019 L 104.42081 -31.566896 L 136.417122 24.333033 Z M 104.006089 79.994396 " stroke="#000000" stroke-width="3.543" stroke-opacity="1" stroke-miterlimit="4"/><path stroke-linecap="round" transform="matrix(0.310827, 0, 0, 0.311103, 83.582665, 139.641553)" fill="none" stroke-linejoin="miter" d="M 104.004828 80.004734 L 39.584915 79.766168 L 7.588602 23.853682 L 39.999635 -31.807681 L 104.419549 -31.569114 L 136.415861 24.330815 Z M 104.004828 80.004734 " stroke="#000000" stroke-width="3.543" stroke-opacity="1" stroke-miterlimit="4"/><path stroke-linecap="round" transform="matrix(0.310827, 0, 0, 0.311103, 113.421116, 157.063317)" fill="none" stroke-linejoin="miter" d="M 103.996743 80.005089 L 39.589397 79.753966 L 7.580517 23.854036 L 40.004118 -31.807326 L 104.411464 -31.56876 L 136.420344 24.33117 Z M 103.996743 80.005089 " stroke="#000000" stroke-width="3.543" stroke-opacity="1" stroke-miterlimit="4"/><path stroke-linecap="round" transform="matrix(0.310827, 0, 0, 0.311103, 113.293682, 261.491185)" fill="none" stroke-linejoin="miter" d="M 104.004573 79.998382 L 39.58466 79.759815 L 7.588347 23.859886 L 39.99938 -31.814033 L 104.419293 -31.575466 L 136.415606 24.337019 Z M 104.004573 79.998382 " stroke="#000000" stroke-width="3.543" stroke-opacity="1" stroke-miterlimit="4"/><path stroke-linecap="round" transform="matrix(0.310827, 0, 0, 0.311103, 143.133053, 278.912919)" fill="none" stroke-linejoin="miter" d="M 104.006094 79.998837 L 39.586181 79.76027 L 7.589869 23.847784 L 40.000902 -31.813578 L 104.420815 -31.575012 L 136.417128 24.337474 Z M 104.006094 79.998837 " stroke="#000000" stroke-width="3.543" stroke-opacity="1" stroke-miterlimit="4"/><path stroke-linecap="round" transform="matrix(0.310827, 0, 0, 0.311103, 143.260486, 244.144109)" fill="none" stroke-linejoin="miter" d="M 103.998265 79.996518 L 39.578352 79.757952 L 7.582039 23.858022 L 40.005639 -31.815897 L 104.412985 -31.57733 L 136.421865 24.335156 Z M 103.998265 79.996518 " stroke="#000000" stroke-width="3.543" stroke-opacity="1" stroke-miterlimit="4"/><path stroke-linecap="round" transform="matrix(0.310827, 0, 0, 0.311103, 173.099872, 261.565842)" fill="none" stroke-linejoin="miter" d="M 103.99974 79.996973 L 39.579827 79.758406 L 7.583514 23.858477 L 39.994547 -31.815442 L 104.414461 -31.576875 L 136.410773 24.33561 Z M 103.99974 79.996973 " stroke="#000000" stroke-width="3.543" stroke-opacity="1" stroke-miterlimit="4"/><path stroke-linecap="round" transform="matrix(0.310827, 0, 0, 0.311103, 322.038791, 278.83823)" fill="none" stroke-linejoin="miter" d="M 103.995175 80.000346 L 39.587829 79.761779 L 7.578949 23.849293 L 40.002549 -31.812069 L 104.409895 -31.573503 L 136.418775 24.338983 Z M 103.995175 80.000346 " stroke="#000000" stroke-width="3.543" stroke-opacity="1" stroke-miterlimit="4"/><g clip-path="url(#8d4f4742a8)"><path stroke-linecap="round" transform="matrix(0.310827, 0, 0, 0.311103, 351.878133, 296.260024)" fill="none" stroke-linejoin="miter" d="M 103.996789 80.000608 L 39.589443 79.762041 L 7.580563 23.849556 L 40.004164 -31.811807 L 104.411509 -31.573241 L 136.420389 24.339245 Z M 103.996789 80.000608 " stroke="#000000" stroke-width="3.543" stroke-opacity="1" stroke-miterlimit="4"/></g><path stroke-linecap="round" transform="matrix(0.310827, 0, 0, 0.311103, 352.008694, 261.491185)" fill="none" stroke-linejoin="miter" d="M 104.004032 79.998382 L 39.584119 79.759815 L 7.587806 23.859886 L 39.998839 -31.814033 L 104.418752 -31.575466 L 136.415065 24.337019 Z M 104.004032 79.998382 " stroke="#000000" stroke-width="3.543" stroke-opacity="1" stroke-miterlimit="4"/><path stroke-linecap="round" transform="matrix(0.310827, 0, 0, 0.311103, 381.851168, 278.912919)" fill="none" stroke-linejoin="miter" d="M 103.995569 79.998837 L 39.588223 79.76027 L 7.579343 23.847784 L 40.002943 -31.813578 L 104.410289 -31.575012 L 136.419169 24.337474 Z M 103.995569 79.998837 " stroke="#000000" stroke-width="3.543" stroke-opacity="1" stroke-miterlimit="4"/><path stroke-linecap="round" transform="matrix(0.310827, 0, 0, 0.311103, 202.681245, 278.807162)" fill="none" stroke-linejoin="miter" d="M 104.001856 79.999763 L 39.581943 79.761196 L 7.58563 23.848711 L 39.996663 -31.812652 L 104.416577 -31.574085 L 136.412889 24.3384 Z M 104.001856 79.999763 " stroke="#000000" stroke-width="3.543" stroke-opacity="1" stroke-miterlimit="4"/><g clip-path="url(#d862d804bb)"><path stroke-linecap="round" transform="matrix(0.310827, 0, 0, 0.311103, 232.520633, 296.228898)" fill="none" stroke-linejoin="miter" d="M 104.003324 80.00021 L 39.583411 79.761643 L 7.587098 23.849158 L 39.998131 -31.812205 L 104.418044 -31.573638 L 136.414357 24.338847 Z M 104.003324 80.00021 " stroke="#000000" stroke-width="3.543" stroke-opacity="1" stroke-miterlimit="4"/></g><path stroke-linecap="round" transform="matrix(0.310827, 0, 0, 0.311103, 232.651182, 261.460056)" fill="none" stroke-linejoin="miter" d="M 103.998038 79.997992 L 39.578125 79.759425 L 7.581812 23.859496 L 40.005413 -31.814423 L 104.412759 -31.575856 L 136.421638 24.336629 Z M 103.998038 79.997992 " stroke="#000000" stroke-width="3.543" stroke-opacity="1" stroke-miterlimit="4"/><path stroke-linecap="round" transform="matrix(0.310827, 0, 0, 0.311103, 262.490553, 278.881821)" fill="none" stroke-linejoin="miter" d="M 103.99956 79.998347 L 39.579646 79.75978 L 7.583334 23.85985 L 39.994367 -31.814068 L 104.41428 -31.575502 L 136.410593 24.336984 Z M 103.99956 79.998347 " stroke="#000000" stroke-width="3.543" stroke-opacity="1" stroke-miterlimit="4"/></svg>